<svg width="200" height="56" viewBox="0 0 200 56" fill="none" xmlns="http://www.w3.org/2000/svg">
<g id="Webflow / Black">
<path id="Vector" fill-rule="evenodd" clip-rule="evenodd" d="M68.5702 16.75L57.0607 39.25H46.25L51.0667 29.925H50.8506C46.8769 35.0835 40.9479 38.4794 32.5 39.25V30.0541C32.5 30.0541 37.9043 29.7349 41.0814 26.3947H32.5V16.7502H42.1445V24.6826L42.361 24.6818L46.3021 16.7502H53.596V24.6323L53.8124 24.632L57.9014 16.75H68.5702Z" fill="#425466"/>
<path id="Vector_2" d="M131.333 36.7665H134.439V18.9375H131.333V36.7665Z" fill="#425466"/>
<path id="Vector_3" fill-rule="evenodd" clip-rule="evenodd" d="M114.209 36.5845C114.884 36.8651 115.571 37.0055 116.268 37.0055C117.421 37.0055 118.453 36.7248 119.363 36.1635C120.273 35.6022 120.979 34.8286 121.479 33.8425C121.98 32.8488 122.23 31.7224 122.23 30.4632C122.23 29.2041 121.972 28.0777 121.457 27.0841C120.941 26.0904 120.224 25.3205 119.306 24.7744C118.388 24.2207 117.345 23.9476 116.177 23.9552C115.434 23.9552 114.721 24.0993 114.038 24.3875C113.356 24.6758 112.787 25.0854 112.332 25.6163C112.297 25.6568 112.262 25.6976 112.229 25.7388V18.949H109.112V36.7666H112.207L112.2 35.1021C112.28 35.2002 112.366 35.2961 112.457 35.3899C112.95 35.8981 113.534 36.2962 114.209 36.5845ZM117.395 33.706C116.887 34.017 116.306 34.1725 115.654 34.1725C115.009 34.1725 114.418 34.0131 113.879 33.6946C113.34 33.3684 112.912 32.9247 112.593 32.3633C112.282 31.8021 112.127 31.1648 112.127 30.4518C112.119 29.7388 112.271 29.1017 112.582 28.5404C112.901 27.9715 113.329 27.5316 113.868 27.2206C114.406 26.902 115.002 26.7465 115.654 26.7541C116.306 26.7465 116.887 26.8982 117.395 27.2092C117.911 27.5126 118.305 27.9488 118.578 28.5177C118.859 29.079 118.999 29.7237 118.999 30.4518C118.999 31.1801 118.859 31.8248 118.578 32.3861C118.305 32.9475 117.911 33.3874 117.395 33.706Z" fill="#425466"/>
<path id="Vector_4" d="M73.0703 20.0184H76.6202L79.7957 31.6154L83.1738 20.0184H86.1321L89.7957 31.3827L92.8449 20.0184H96.0989L91.2976 36.7665H88.2369L84.5114 25.6645L81.0917 36.7665H77.9969L73.0703 20.0184Z" fill="#425466"/>
<path id="Vector_5" fill-rule="evenodd" clip-rule="evenodd" d="M101.341 37.0623C100.105 37.07 98.9898 36.7968 97.9962 36.2432C97.01 35.6818 96.2327 34.9043 95.6637 33.9107C95.1024 32.9171 94.8218 31.7831 94.8218 30.5087C94.8218 29.2723 95.11 28.1536 95.6865 27.1523C96.2629 26.1511 97.0442 25.3698 98.0303 24.8085C99.0164 24.2472 100.116 23.9666 101.33 23.9666C102.695 23.9666 103.89 24.27 104.914 24.8768C105.945 25.4836 106.715 26.3445 107.224 27.4595C107.739 28.567 107.925 29.8375 107.781 31.2711H98.0352C98.0624 31.8422 98.2049 32.3618 98.4627 32.8298C98.7509 33.3456 99.1529 33.7476 99.6687 34.0358C100.185 34.3241 100.761 34.4682 101.398 34.4682C101.884 34.4606 102.335 34.3772 102.752 34.218C103.169 34.0511 103.522 33.8273 103.81 33.5466C104.106 33.266 104.315 32.9475 104.436 32.591H107.69C107.493 33.4632 107.098 34.2407 106.507 34.9233C105.915 35.5985 105.172 36.1256 104.277 36.5048C103.382 36.8841 102.403 37.07 101.341 37.0623ZM98.474 28.1422C98.2923 28.4592 98.1663 28.8005 98.0962 29.1662H104.557C104.51 28.7042 104.367 28.2832 104.129 27.9033C103.856 27.4557 103.484 27.1106 103.014 26.8679C102.544 26.6176 102.013 26.4924 101.421 26.4924C100.791 26.4924 100.219 26.6365 99.7028 26.9248C99.187 27.213 98.7774 27.6188 98.474 28.1422Z" fill="#425466"/>
<path id="Vector_6" d="M124.518 24.2282C124.518 23.2118 124.749 22.3092 125.212 21.5203C125.674 20.7239 126.323 20.1057 127.157 19.6657C127.999 19.2182 128.982 18.9868 130.104 18.9717V21.7365C129.581 21.7441 129.133 21.854 128.762 22.0664C128.397 22.2712 128.117 22.5708 127.92 22.9653C127.738 23.3284 127.64 23.7494 127.626 24.2282H130.036V26.8565H127.624V36.7665H124.518V26.8565H122.515V24.2282H124.518Z" fill="#425466"/>
<path id="Vector_7" fill-rule="evenodd" clip-rule="evenodd" d="M142.335 37.0395C141.068 37.0395 139.934 36.7626 138.933 36.209C137.939 35.6476 137.158 34.874 136.589 33.8879C136.028 32.8942 135.747 31.7679 135.747 30.5086C135.747 29.242 136.028 28.1118 136.589 27.1181C137.158 26.1169 137.939 25.3394 138.933 24.7857C139.934 24.2319 141.068 23.9551 142.335 23.9551C143.609 23.9551 144.747 24.2319 145.748 24.7857C146.757 25.3394 147.542 26.1131 148.103 27.1067C148.665 28.1004 148.949 29.2344 148.957 30.5086C148.949 31.7679 148.665 32.8942 148.103 33.8879C147.55 34.874 146.768 35.6476 145.759 36.209C144.751 36.7626 143.609 37.0395 142.335 37.0395ZM142.335 34.1837C143.002 34.1837 143.594 34.032 144.11 33.7286C144.626 33.4176 145.024 32.9852 145.304 32.4315C145.585 31.8702 145.725 31.2292 145.725 30.5086C145.725 29.7805 145.585 29.1357 145.304 28.5745C145.024 28.0132 144.626 27.5808 144.11 27.2774C143.594 26.9664 143.002 26.8109 142.335 26.8109C141.675 26.8109 141.087 26.9664 140.571 27.2774C140.063 27.5808 139.669 28.0132 139.388 28.5745C139.107 29.1357 138.971 29.7805 138.978 30.5086C138.978 31.2292 139.119 31.8702 139.399 32.4315C139.688 32.9852 140.082 33.4176 140.583 33.7286C141.091 34.032 141.675 34.1837 142.335 34.1837Z" fill="#425466"/>
<path id="Vector_8" d="M152.313 24.2281H148.854L152.598 36.7665H155.624L158.086 28.7582L160.744 36.7665H163.725L167.48 24.2281H164.351L162.221 32.0325L159.867 24.2281H156.842L154.499 32.2044L152.313 24.2281Z" fill="#425466"/>
</g>
</svg>
