<svg width="141" height="56" viewBox="0 0 141 56" fill="none" xmlns="http://www.w3.org/2000/svg">
<g id="Webflow / Black">
<path id="Vector" fill-rule="evenodd" clip-rule="evenodd" d="M38.7582 16.75L27.2487 39.25H16.438L21.2547 29.925H21.0386C17.0649 35.0835 11.1359 38.4794 2.68799 39.25V30.0541C2.68799 30.0541 8.0923 29.7349 11.2693 26.3947H2.68799V16.7502H12.3325V24.6827L12.549 24.6818L16.4901 16.7502H23.784V24.6324L24.0004 24.632L28.0894 16.75H38.7582Z" fill="#0A2540"/>
<path id="Vector_2" d="M101.521 36.7665H104.627V18.9375H101.521V36.7665Z" fill="#0A2540"/>
<path id="Vector_3" fill-rule="evenodd" clip-rule="evenodd" d="M84.3971 36.5845C85.0721 36.8651 85.7586 37.0055 86.4564 37.0055C87.6093 37.0055 88.6409 36.7248 89.5512 36.1635C90.4613 35.6022 91.1668 34.8286 91.6674 33.8425C92.1681 32.8488 92.4183 31.7223 92.4183 30.4632C92.4183 29.2041 92.1604 28.0777 91.6447 27.0841C91.1288 26.0904 90.4121 25.3205 89.4942 24.7744C88.5764 24.2207 87.5334 23.9476 86.3653 23.9552C85.6221 23.9552 84.9091 24.0993 84.2263 24.3875C83.5437 24.6758 82.9748 25.0854 82.5197 25.6163C82.4846 25.6568 82.4504 25.6976 82.4173 25.7388V18.949H79.2998V36.7666H82.3946L82.3883 35.1021C82.4683 35.2002 82.5539 35.2961 82.6448 35.3898C83.1378 35.8981 83.7219 36.2962 84.3971 36.5845ZM87.5828 33.706C87.0746 34.017 86.4943 34.1725 85.8419 34.1725C85.1972 34.1725 84.6056 34.0131 84.0671 33.6946C83.5284 33.3683 83.0999 32.9247 82.7813 32.3633C82.4703 31.8021 82.3148 31.1648 82.3148 30.4518C82.3073 29.7388 82.4589 29.1017 82.7699 28.5404C83.0886 27.9715 83.5171 27.5316 84.0557 27.2206C84.5942 26.902 85.1897 26.7465 85.8419 26.7541C86.4943 26.7465 87.0746 26.8982 87.5828 27.2092C88.0986 27.5126 88.4929 27.9488 88.7661 28.5177C89.0467 29.079 89.1871 29.7237 89.1871 30.4518C89.1871 31.1801 89.0467 31.8248 88.7661 32.3861C88.4929 32.9475 88.0986 33.3873 87.5828 33.706Z" fill="#0A2540"/>
<path id="Vector_4" d="M43.2578 20.0184H46.8077L49.9832 31.6154L53.3613 20.0184H56.3196L59.9832 31.3827L63.0324 20.0184H66.2864L61.4851 36.7666H58.4244L54.6989 25.6645L51.2792 36.7666H48.1844L43.2578 20.0184Z" fill="#0A2540"/>
<path id="Vector_5" fill-rule="evenodd" clip-rule="evenodd" d="M71.5293 37.0623C70.2928 37.0699 69.1778 36.7968 68.1841 36.2432C67.198 35.6818 66.4206 34.9043 65.8516 33.9107C65.2904 32.917 65.0098 31.783 65.0098 30.5087C65.0098 29.2723 65.298 28.1535 65.8745 27.1523C66.4509 26.151 67.2321 25.3698 68.2183 24.8085C69.2044 24.2472 70.3041 23.9665 71.5178 23.9665C72.8831 23.9665 74.0778 24.2699 75.1018 24.8767C76.1334 25.4835 76.9033 26.3445 77.4115 27.4595C77.9273 28.5669 78.1131 29.8374 77.969 31.271H68.2231C68.2504 31.8422 68.3929 32.3618 68.6506 32.8298C68.9389 33.3455 69.3409 33.7475 69.8566 34.0358C70.3725 34.324 70.9489 34.4682 71.5861 34.4682C72.0715 34.4605 72.5229 34.3772 72.94 34.2179C73.3573 34.051 73.7099 33.8273 73.9981 33.5465C74.294 33.2659 74.5026 32.9474 74.624 32.5909H77.878C77.6808 33.4632 77.2864 34.2407 76.6948 34.9233C76.103 35.5984 75.3598 36.1255 74.4646 36.5048C73.5696 36.884 72.5911 37.0699 71.5293 37.0623ZM68.662 28.1421C68.4803 28.4591 68.3543 28.8004 68.2841 29.1662H74.7445C74.6976 28.7042 74.555 28.2832 74.3168 27.9032C74.0436 27.4557 73.672 27.1106 73.2018 26.8678C72.7315 26.6175 72.2005 26.4924 71.6089 26.4924C70.9793 26.4924 70.4066 26.6365 69.8908 26.9247C69.375 27.213 68.9654 27.6188 68.662 28.1421Z" fill="#0A2540"/>
<path id="Vector_6" d="M94.7056 24.2282C94.7056 23.2118 94.9369 22.3092 95.3996 21.5203C95.8622 20.7239 96.5109 20.1057 97.3452 19.6657C98.1871 19.2182 99.1695 18.9869 100.292 18.9717V21.7365C99.7686 21.7441 99.3211 21.8541 98.9495 22.0664C98.5854 22.2712 98.3048 22.5709 98.1075 22.9653C97.926 23.3284 97.828 23.7494 97.8136 24.2282H100.224V26.8565H97.8117V36.7666H94.7056V26.8565H92.7031V24.2282H94.7056Z" fill="#0A2540"/>
<path id="Vector_7" fill-rule="evenodd" clip-rule="evenodd" d="M112.523 37.0395C111.256 37.0395 110.122 36.7626 109.121 36.209C108.127 35.6476 107.346 34.874 106.777 33.8879C106.216 32.8942 105.935 31.7678 105.935 30.5086C105.935 29.242 106.216 28.1118 106.777 27.1181C107.346 26.1168 108.127 25.3394 109.121 24.7857C110.122 24.2319 111.256 23.9551 112.523 23.9551C113.797 23.9551 114.935 24.2319 115.936 24.7857C116.945 25.3394 117.73 26.1131 118.291 27.1067C118.853 28.1004 119.137 29.2344 119.145 30.5086C119.137 31.7678 118.853 32.8942 118.291 33.8879C117.738 34.874 116.956 35.6476 115.947 36.209C114.939 36.7626 113.797 37.0395 112.523 37.0395ZM112.523 34.1837C113.19 34.1837 113.782 34.032 114.298 33.7286C114.814 33.4176 115.212 32.9852 115.492 32.4315C115.773 31.8702 115.913 31.2292 115.913 30.5086C115.913 29.7805 115.773 29.1357 115.492 28.5744C115.212 28.0131 114.814 27.5808 114.298 27.2774C113.782 26.9664 113.19 26.8109 112.523 26.8109C111.863 26.8109 111.275 26.9664 110.759 27.2774C110.251 27.5808 109.857 28.0131 109.576 28.5744C109.295 29.1357 109.159 29.7805 109.166 30.5086C109.166 31.2292 109.307 31.8702 109.587 32.4315C109.876 32.9852 110.27 33.4176 110.771 33.7286C111.279 34.032 111.863 34.1837 112.523 34.1837Z" fill="#0A2540"/>
<path id="Vector_8" d="M122.501 24.2282H119.042L122.786 36.7665H125.812L128.274 28.7583L130.932 36.7665H133.913L137.668 24.2282H134.539L132.409 32.0325L130.055 24.2282H127.03L124.687 32.2044L122.501 24.2282Z" fill="#0A2540"/>
</g>
</svg>
